<svg width="16" height="16" viewBox="0 0 16 16" fill="none" xmlns="http://www.w3.org/2000/svg">
<path fill-rule="evenodd" clip-rule="evenodd" d="M7.19231 2C4.32468 2 2 4.32468 2 7.19231C2 10.0599 4.32468 12.3846 7.19231 12.3846C8.62506 12.3846 9.92067 11.8056 10.8612 10.8665C11.8035 9.92554 12.3846 8.62774 12.3846 7.19231C12.3846 4.32468 10.0599 2 7.19231 2ZM0 7.19231C0 3.22011 3.22011 0 7.19231 0C11.1645 0 14.3846 3.22011 14.3846 7.19231C14.3846 8.81869 13.8439 10.32 12.9338 11.5247L15.7065 14.2922C16.0973 14.6824 16.0979 15.3156 15.7078 15.7065C15.3176 16.0973 14.6844 16.0979 14.2935 15.7078L11.5189 12.9382C10.3152 13.8457 8.81606 14.3846 7.19231 14.3846C3.22011 14.3846 0 11.1645 0 7.19231Z" fill="#244D51"/>
</svg>
